<svg xmlns="http://www.w3.org/2000/svg" width="1764" height="1320" viewBox="0 0 1764 1320" font-family="-apple-system,Segoe UI,Roboto,Helvetica,Arial,PingFang SC,Microsoft YaHei,sans-serif">
  <defs>
    <marker id="a" markerWidth="9" markerHeight="9" refX="7" refY="3" orient="auto"><path d="M0,0 L7,3 L0,6 Z" fill="#3a4250"/></marker>
    <marker id="ao" markerWidth="9" markerHeight="9" refX="7" refY="3" orient="auto"><path d="M0,0 L7,3 L0,6 Z" fill="#d77f2a"/></marker>
    <marker id="aw" markerWidth="10" markerHeight="10" refX="8" refY="3" orient="auto"><path d="M0,0 L8,3 L0,6 Z" fill="#fff"/></marker>
  </defs>
  <rect width="1764" height="1320" fill="#f4f6f9"/>
  <text x="24" y="34" font-size="21" font-weight="700" fill="#0d2b45">全域数字化智能决策平台 · 数据流转 IPO 全景（输入 → 过程 → 输出）</text>
  <text x="24" y="56" font-size="12.5" fill="#5a6678">依据 docs/SYSTEM-ONTOLOGY.md（§2 模块 · §3 链路 · §4 事件）。蓝=DataCore A（数据/本体/推演真值） · 绿=AgentCore B（交互/编排） · 紫=前端 · 橙=反馈回路</text>

  <!-- ===== 主数据脊（上下游链） ===== -->
  <line x1="30" y1="86" x2="1740" y2="86" stroke="#0d3b66" stroke-width="3" marker-end="url(#a)"/>
  <g font-size="11" fill="#0d3b66" font-weight="700" text-anchor="middle">
    <text x="150" y="80">原始数据集</text>
    <text x="340" y="80">本体类型/规则</text>
    <text x="535" y="80">对象+链路</text>
    <text x="725" y="80">派生/切片/时序</text>
    <text x="918" y="80">求解结果/裁决</text>
    <text x="1110" y="80">真值写回</text>
    <text x="1300" y="80">答案块(OBO)</text>
    <text x="1490" y="80">SSE→视图</text>
  </g>

  <!-- column headers -->
  <g font-size="13" font-weight="700" fill="#1b2430" text-anchor="middle">
    <text x="114" y="112">① 数据源(输入)</text>
    <text x="306" y="112">② 接入 A1/A7</text>
    <text x="498" y="112">③ 建模 A2/A3</text>
    <text x="690" y="112">④ 对象化 A4</text>
    <text x="882" y="112">⑤ 加工 A4/A6/A8</text>
    <text x="1074" y="112">⑥ 推演 A5/S1</text>
    <text x="1266" y="112">⑦ 行动 S2</text>
    <text x="1452" y="112">⑧ 编排(AgentCore)</text>
    <text x="1644" y="112">⑨ 呈现(前端)</text>
  </g>

  <!-- ============ MODULE BLOCKS ============ -->
  <!-- helper: each block 180w x 74h ; header 18h -->
  <!-- C1 SOURCES x=24 -->
  <g font-size="10.5">
    <!-- block macro rendered inline -->
    <!-- C1 -->
    <g>
      <rect x="24" y="124" width="180" height="74" rx="7" fill="#eef1f5" stroke="#8a98ac"/><rect x="24" y="124" width="180" height="18" rx="7" fill="#cfd6e0"/><text x="32" y="137" font-weight="700" fill="#22303f">外部业务系统</text>
      <text x="30" y="156" fill="#33506b">I·ERP/CRM/JDBC/REST 凭据</text><text x="30" y="170" fill="#5a6678">P·适配器拉取+字段画像</text><text x="30" y="184" fill="#2f7d4f">O·数据集</text>
    </g>
    <g>
      <rect x="24" y="210" width="180" height="74" rx="7" fill="#eef1f5" stroke="#8a98ac"/><rect x="24" y="210" width="180" height="18" rx="7" fill="#cfd6e0"/><text x="32" y="223" font-weight="700" fill="#22303f">文件上传</text>
      <text x="30" y="242" fill="#33506b">I·CSV/XLSX/JSON</text><text x="30" y="256" fill="#5a6678">P·三路解析统一</text><text x="30" y="270" fill="#2f7d4f">O·数据集</text>
    </g>
    <g>
      <rect x="24" y="296" width="180" height="74" rx="7" fill="#eef1f5" stroke="#8a98ac"/><rect x="24" y="296" width="180" height="18" rx="7" fill="#cfd6e0"/><text x="32" y="309" font-weight="700" fill="#22303f">外部信号源</text>
      <text x="30" y="328" fill="#33506b">I·mock_external / feed</text><text x="30" y="342" fill="#5a6678">P·同步+敏感性</text><text x="30" y="356" fill="#2f7d4f">O·锂价/汇率/需求指数</text>
    </g>
    <g>
      <rect x="24" y="382" width="180" height="74" rx="7" fill="#fde7d6" stroke="#d79b3a"/><rect x="24" y="382" width="180" height="18" rx="7" fill="#f3d4a6"/><text x="32" y="395" font-weight="700" fill="#7a4d12">故事脚本</text>
      <text x="30" y="414" fill="#7a4d12">I·一句话业务故事</text><text x="30" y="428" fill="#5a6678">P·→数据构建发动机</text><text x="30" y="442" fill="#a85a12">O·驱动倒推(回路L1)</text>
    </g>
    <g>
      <rect x="24" y="468" width="180" height="74" rx="7" fill="#eef1f5" stroke="#8a98ac"/><rect x="24" y="468" width="180" height="18" rx="7" fill="#cfd6e0"/><text x="32" y="481" font-weight="700" fill="#22303f">模拟时钟 A8</text>
      <text x="30" y="500" fill="#33506b">I·tick(虚拟日)</text><text x="30" y="514" fill="#5a6678">P·推进运营态</text><text x="30" y="528" fill="#2f7d4f">O·时序点/态变更</text>
    </g>

    <!-- C2 INGEST x=216 (DataCore blue) -->
    <g>
      <rect x="216" y="124" width="180" height="86" rx="7" fill="#dceafc" stroke="#4C7BE0"/><rect x="216" y="124" width="180" height="18" rx="7" fill="#b9d2f7"/><text x="224" y="137" font-weight="700" fill="#0d3b66">连接器 A1</text>
      <text x="222" y="156" fill="#33506b">I·源/上传文件</text><text x="222" y="170" fill="#5a6678">P·画像+校验策略</text><text x="222" y="184" fill="#2f7d4f">O·RawDataset/RawRow</text><text x="222" y="198" fill="#b00020">+异常→隔离区</text>
    </g>
    <g>
      <rect x="216" y="222" width="180" height="86" rx="7" fill="#dceafc" stroke="#4C7BE0"/><rect x="216" y="222" width="180" height="18" rx="7" fill="#b9d2f7"/><text x="224" y="235" font-weight="700" fill="#0d3b66">合成数据 A7</text>
      <text x="222" y="254" fill="#33506b">I·行业/规模/seed</text><text x="222" y="268" fill="#5a6678">P·确定性PRNG+FK一致</text><text x="222" y="282" fill="#5a6678">[未知行业→LLM模板]</text><text x="222" y="296" fill="#2f7d4f">O·合成源+RawDataset</text>
    </g>
    <g>
      <rect x="216" y="320" width="180" height="74" rx="7" fill="#dceafc" stroke="#4C7BE0"/><rect x="216" y="320" width="180" height="18" rx="7" fill="#b9d2f7"/><text x="224" y="333" font-weight="700" fill="#0d3b66">数据接入分类</text>
      <text x="222" y="352" fill="#33506b">I·数据集+对象类型</text><text x="222" y="366" fill="#5a6678">P·锂电域归类+模式</text><text x="222" y="380" fill="#2f7d4f">O·分类视图+上传模版</text>
    </g>

    <!-- C3 MODEL x=408 -->
    <g>
      <rect x="408" y="124" width="180" height="74" rx="7" fill="#dceafc" stroke="#4C7BE0"/><rect x="408" y="124" width="180" height="18" rx="7" fill="#b9d2f7"/><text x="416" y="137" font-weight="700" fill="#0d3b66">半自动建模 A3</text>
      <text x="414" y="156" fill="#33506b">I·数据集字段画像</text><text x="414" y="170" fill="#5a6678">P·PK唯一/FK值包含</text><text x="414" y="184" fill="#2f7d4f">O·本体草稿</text>
    </g>
    <g>
      <rect x="408" y="210" width="180" height="74" rx="7" fill="#dceafc" stroke="#4C7BE0"/><rect x="408" y="210" width="180" height="18" rx="7" fill="#b9d2f7"/><text x="416" y="223" font-weight="700" fill="#0d3b66">规则文档抽取 A2</text>
      <text x="414" y="242" fill="#33506b">I·规则文档[LLM]</text><text x="414" y="256" fill="#5a6678">P·抽取→候选</text><text x="414" y="270" fill="#2f7d4f">O·规则候选</text>
    </g>
    <g>
      <rect x="408" y="296" width="180" height="74" rx="7" fill="#dceafc" stroke="#4C7BE0"/><rect x="408" y="296" width="180" height="18" rx="7" fill="#b9d2f7"/><text x="416" y="309" font-weight="700" fill="#0d3b66">本体发布 A4</text>
      <text x="414" y="328" fill="#33506b">I·草稿/类型/链路</text><text x="414" y="342" fill="#5a6678">P·版本化发布(DRAFT→PUB)</text><text x="414" y="356" fill="#2f7d4f">O·OntologyType/Link/Ver</text>
    </g>

    <!-- C4 OBJECT x=600 -->
    <g>
      <rect x="600" y="124" width="180" height="86" rx="7" fill="#dceafc" stroke="#4C7BE0"/><rect x="600" y="124" width="180" height="18" rx="7" fill="#b9d2f7"/><text x="608" y="137" font-weight="700" fill="#0d3b66">对象物化</text>
      <text x="606" y="156" fill="#33506b">I·RawDataset+类型</text><text x="606" y="170" fill="#5a6678">P·幂等 materialize</text><text x="606" y="184" fill="#2f7d4f">O·ObjectInstance+Link</text><text x="606" y="198" fill="#5a6678">(origin 可溯 rawDataset/row)</text>
    </g>
    <g>
      <rect x="600" y="222" width="180" height="74" rx="7" fill="#dceafc" stroke="#4C7BE0"/><rect x="600" y="222" width="180" height="18" rx="7" fill="#b9d2f7"/><text x="608" y="235" font-weight="700" fill="#0d3b66">实体解析 OC1</text>
      <text x="606" y="254" fill="#33506b">I·多源同实体</text><text x="606" y="268" fill="#5a6678">P·归一匹配+人审合并</text><text x="606" y="282" fill="#2f7d4f">O·golden对象(72h可还原)</text>
    </g>

    <!-- C5 ENRICH x=792 -->
    <g>
      <rect x="792" y="124" width="180" height="74" rx="7" fill="#dceafc" stroke="#4C7BE0"/><rect x="792" y="124" width="180" height="18" rx="7" fill="#b9d2f7"/><text x="800" y="137" font-weight="700" fill="#0d3b66">派生 A4</text>
      <text x="798" y="156" fill="#33506b">I·对象+派生DSL</text><text x="798" y="170" fill="#5a6678">P·topo 增量最小集重算</text><text x="798" y="184" fill="#2f7d4f">O·派生属性</text>
    </g>
    <g>
      <rect x="792" y="210" width="180" height="74" rx="7" fill="#dceafc" stroke="#4C7BE0"/><rect x="792" y="210" width="180" height="18" rx="7" fill="#b9d2f7"/><text x="800" y="223" font-weight="700" fill="#0d3b66">切片 A6</text>
      <text x="798" y="242" fill="#33506b">I·对象图+SliceSpec+Policy</text><text x="798" y="256" fill="#5a6678">P·逐跳遍历+行级过滤</text><text x="798" y="270" fill="#2f7d4f">O·子图(nodes/edges)</text>
    </g>
    <g>
      <rect x="792" y="296" width="180" height="74" rx="7" fill="#dceafc" stroke="#4C7BE0"/><rect x="792" y="296" width="180" height="18" rx="7" fill="#b9d2f7"/><text x="800" y="309" font-weight="700" fill="#0d3b66">时序 A8</text>
      <text x="798" y="328" fill="#33506b">I·时序上传/tick</text><text x="798" y="342" fill="#5a6678">P·聚合+延迟到达</text><text x="798" y="356" fill="#2f7d4f">O·ts点→快照属性/曲线</text>
    </g>
    <g>
      <rect x="792" y="382" width="180" height="74" rx="7" fill="#dceafc" stroke="#4C7BE0"/><rect x="792" y="382" width="180" height="18" rx="7" fill="#b9d2f7"/><text x="800" y="395" font-weight="700" fill="#0d3b66">知识库 S4</text>
      <text x="798" y="414" fill="#33506b">I·KbDoc</text><text x="798" y="428" fill="#5a6678">P·索引/向量化</text><text x="798" y="442" fill="#2f7d4f">O·KbChunk→检索</text>
    </g>

    <!-- C6 SOLVE x=984 -->
    <g>
      <rect x="984" y="124" width="180" height="74" rx="7" fill="#dceafc" stroke="#4C7BE0"/><rect x="984" y="124" width="180" height="18" rx="7" fill="#b9d2f7"/><text x="992" y="137" font-weight="700" fill="#0d3b66">规则引擎 A5</text>
      <text x="990" y="156" fill="#33506b">I·对象+规则DSL</text><text x="990" y="170" fill="#5a6678">P·评估(BLOCK短路)</text><text x="990" y="184" fill="#2f7d4f">O·RuleVerdict</text>
    </g>
    <g>
      <rect x="984" y="210" width="180" height="86" rx="7" fill="#dceafc" stroke="#4C7BE0"/><rect x="984" y="210" width="180" height="18" rx="7" fill="#b9d2f7"/><text x="992" y="223" font-weight="700" fill="#0d3b66">求解器 S1（28）</text>
      <text x="990" y="242" fill="#33506b">I·对象图/切片+参数</text><text x="990" y="256" fill="#5a6678">P·确定性compute/多跳</text><text x="990" y="270" fill="#2f7d4f">O·瓶颈/风险/毛利…</text><text x="990" y="284" fill="#5a6678">R6 同输入同输出</text>
    </g>
    <g>
      <rect x="984" y="308" width="180" height="74" rx="7" fill="#dceafc" stroke="#4C7BE0"/><rect x="984" y="308" width="180" height="18" rx="7" fill="#b9d2f7"/><text x="992" y="321" font-weight="700" fill="#0d3b66">CP-SAT sidecar</text>
      <text x="990" y="340" fill="#33506b">I·最优化模型</text><text x="990" y="354" fill="#5a6678">P·OR-Tools(自托管)</text><text x="990" y="368" fill="#2f7d4f">O·可证最优解</text>
    </g>
    <g>
      <rect x="984" y="394" width="180" height="74" rx="7" fill="#dceafc" stroke="#4C7BE0"/><rect x="984" y="394" width="180" height="18" rx="7" fill="#b9d2f7"/><text x="992" y="407" font-weight="700" fill="#0d3b66">校准 M11</text>
      <text x="990" y="426" fill="#33506b">I·预测↔实际</text><text x="990" y="440" fill="#5a6678">P·EMA/重放归因</text><text x="990" y="454" fill="#2f7d4f">O·求解器参数(版本化)</text>
    </g>

    <!-- C7 ACTION x=1176 -->
    <g>
      <rect x="1176" y="124" width="180" height="100" rx="7" fill="#dceafc" stroke="#4C7BE0"/><rect x="1176" y="124" width="180" height="18" rx="7" fill="#b9d2f7"/><text x="1184" y="137" font-weight="700" fill="#0d3b66">Action 审批 S2</text>
      <text x="1182" y="156" fill="#33506b">I·ActionDraft</text><text x="1182" y="170" fill="#5a6678">  (求解建议/用户)</text><text x="1182" y="186" fill="#5a6678">P·审批 R4 → EXECUTED</text><text x="1182" y="202" fill="#2f7d4f">O·写回对象 props</text><text x="1182" y="216" fill="#b00020">→二次派生+回声对账</text>
    </g>

    <!-- C8 ORCHESTRATE x=1368 (green) -->
    <g>
      <rect x="1368" y="124" width="180" height="74" rx="7" fill="#e2f3ea" stroke="#3aa76d"/><rect x="1368" y="124" width="180" height="18" rx="7" fill="#c2e6d1"/><text x="1376" y="137" font-weight="700" fill="#15623c">QOS 编排</text>
      <text x="1374" y="156" fill="#1c5e3c">I·问句 Query</text><text x="1374" y="170" fill="#5a6678">P·classify→路径A/B→SSE</text><text x="1374" y="184" fill="#2f7d4f">O·AnswerBlock</text>
    </g>
    <g>
      <rect x="1368" y="210" width="180" height="74" rx="7" fill="#e2f3ea" stroke="#3aa76d"/><rect x="1368" y="210" width="180" height="18" rx="7" fill="#c2e6d1"/><text x="1376" y="223" font-weight="700" fill="#15623c">意图/执行计划</text>
      <text x="1374" y="242" fill="#1c5e3c">I·Intent(planRef)</text><text x="1374" y="256" fill="#5a6678">P·→计划步骤</text><text x="1374" y="270" fill="#2f7d4f">O·step序列</text>
    </g>
    <g>
      <rect x="1368" y="296" width="180" height="74" rx="7" fill="#e2f3ea" stroke="#3aa76d"/><rect x="1368" y="296" width="180" height="18" rx="7" fill="#c2e6d1"/><text x="1376" y="309" font-weight="700" fill="#15623c">Workflow B2</text>
      <text x="1374" y="328" fill="#1c5e3c">I·计划 steps</text><text x="1374" y="342" fill="#5a6678">P·OBO HTTP→A 取数/求解</text><text x="1374" y="356" fill="#2f7d4f">O·stepOutputs</text>
    </g>
    <g>
      <rect x="1368" y="382" width="180" height="74" rx="7" fill="#e2f3ea" stroke="#3aa76d"/><rect x="1368" y="382" width="180" height="18" rx="7" fill="#c2e6d1"/><text x="1376" y="395" font-weight="700" fill="#15623c">Agent B1 / Skill / MCP</text>
      <text x="1374" y="414" fill="#1c5e3c">I·定义+问句[LLM]/MCP工具</text><text x="1374" y="428" fill="#5a6678">P·工具循环/tools.call(OBO)</text><text x="1374" y="442" fill="#2f7d4f">O·Answer(路径B)</text>
    </g>
    <g>
      <rect x="1368" y="468" width="180" height="74" rx="7" fill="#e2f3ea" stroke="#3aa76d"/><rect x="1368" y="468" width="180" height="18" rx="7" fill="#c2e6d1"/><text x="1376" y="481" font-weight="700" fill="#15623c">场景启动器 B5</text>
      <text x="1374" y="500" fill="#1c5e3c">I·Scenario(preset+intent+view)</text><text x="1374" y="514" fill="#5a6678">P·launch 注入 slots</text><text x="1374" y="528" fill="#2f7d4f">O·→QOS→targetView</text>
    </g>
    <g>
      <rect x="1368" y="554" width="180" height="74" rx="7" fill="#e2f3ea" stroke="#3aa76d"/><rect x="1368" y="554" width="180" height="18" rx="7" fill="#c2e6d1"/><text x="1376" y="567" font-weight="700" fill="#15623c">Agent 评测</text>
      <text x="1374" y="586" fill="#1c5e3c">I·用例(20场景种子)</text><text x="1374" y="600" fill="#5a6678">P·真跑QOS比对期望</text><text x="1374" y="614" fill="#2f7d4f">O·回归门(通过率)</text>
    </g>

    <!-- C9 PRESENT x=1560 (purple) -->
    <g>
      <rect x="1560" y="124" width="180" height="74" rx="7" fill="#ece6f9" stroke="#7e5bd6"/><rect x="1560" y="124" width="180" height="18" rx="7" fill="#dccff2"/><text x="1568" y="137" font-weight="700" fill="#4a2b94">业务视图</text>
      <text x="1566" y="156" fill="#4a2b94">I·A/B REST + SSE</text><text x="1566" y="170" fill="#5a6678">P·renderer 分发渲染</text><text x="1566" y="184" fill="#2f7d4f">O·规划/推演/驾驶舱</text>
    </g>
    <g>
      <rect x="1560" y="210" width="180" height="74" rx="7" fill="#ece6f9" stroke="#7e5bd6"/><rect x="1560" y="210" width="180" height="18" rx="7" fill="#dccff2"/><text x="1568" y="223" font-weight="700" fill="#4a2b94">对话坞 QueryDock</text>
      <text x="1566" y="242" fill="#4a2b94">I·用户问句</text><text x="1566" y="256" fill="#5a6678">P·SSE 流式</text><text x="1566" y="270" fill="#2f7d4f">O·答案块(table/kpi/draft)</text>
    </g>
    <g>
      <rect x="1560" y="296" width="180" height="74" rx="7" fill="#ece6f9" stroke="#7e5bd6"/><rect x="1560" y="296" width="180" height="18" rx="7" fill="#dccff2"/><text x="1568" y="309" font-weight="700" fill="#4a2b94">管理台(20+页)</text>
      <text x="1566" y="328" fill="#4a2b94">I·两系统配置</text><text x="1566" y="342" fill="#5a6678">P·CRUD+发布</text><text x="1566" y="356" fill="#2f7d4f">O·连接器/本体/规则/Agent/场景</text>
    </g>
    <g>
      <rect x="1560" y="382" width="180" height="74" rx="7" fill="#fde7d6" stroke="#d79b3a"/><rect x="1560" y="382" width="180" height="18" rx="7" fill="#f3d4a6"/><text x="1568" y="395" font-weight="700" fill="#7a4d12">数据构建发动机页</text>
      <text x="1566" y="414" fill="#7a4d12">I·故事/产物</text><text x="1566" y="428" fill="#5a6678">P·全栈倒推可视</text><text x="1566" y="442" fill="#a85a12">O·历史推演+一键推演</text>
    </g>
  </g>

  <!-- inter-stage spine arrows (between columns, mid y=160) -->
  <g stroke="#3a4250" stroke-width="2" marker-end="url(#a)">
    <line x1="205" y1="160" x2="215" y2="160"/><line x1="397" y1="160" x2="407" y2="160"/><line x1="589" y1="160" x2="599" y2="160"/>
    <line x1="781" y1="160" x2="791" y2="160"/><line x1="973" y1="160" x2="983" y2="160"/><line x1="1165" y1="160" x2="1175" y2="160"/>
    <line x1="1357" y1="160" x2="1367" y2="160"/><line x1="1549" y1="160" x2="1559" y2="160"/>
  </g>
  <!-- 求解结果→编排(OBO) 反向取数: workflow/agent 调 A 求解/切片 -->
  <path d="M1368,420 C1300,420 1200,300 1164,250" fill="none" stroke="#3aa76d" stroke-width="1.6" stroke-dasharray="5 4" marker-end="url(#a)"/>
  <text x="1210" y="300" font-size="10" fill="#15623c">OBO HTTP：B 调 A 取数/求解/切片/规则</text>

  <!-- ============ FEEDBACK LOOPS ============ -->
  <text x="24" y="700" font-size="14" font-weight="700" fill="#7a4d12">反馈回路（数据回流，使系统"成长"与"自洽"）</text>
  <g font-size="11.5">
    <!-- L1 FDE -->
    <rect x="24" y="714" width="1716" height="50" rx="8" fill="#fff7e6" stroke="#d79b3a"/>
    <text x="34" y="734" font-weight="700" fill="#7a4d12">L1 数据构建发动机(FDE)</text>
    <text x="34" y="752" fill="#5a4020">故事脚本 → comprehend(真LLM/关键词地板) → 倒推写回【②数据·③本体/规则·⑤切片·⑥求解器需求】+ ⑧B栈(计划/意图/场景/Agent DRAFT) → 进启动器可推演（StoryBuildRun 留痕）</text>
    <path d="M150,420 C150,690 150,706 150,714" fill="none" stroke="#d79b3a" stroke-width="1.6" marker-end="url(#ao)"/>
    <!-- L2 Growth -->
    <rect x="24" y="772" width="1716" height="50" rx="8" fill="#fff7e6" stroke="#d79b3a"/>
    <text x="34" y="792" font-weight="700" fill="#7a4d12">L2 自成长发动机(B)</text>
    <text x="34" y="810" fill="#5a4020">客户问句 → 缺口探针(7码:NO_INTENT/NO_SLICE/SOLVER_NOT_FOUND…) → 补法【缺数据走真人正门②/否则落施工工单】 → LOOP 重跑 → 收敛(可答)。成长账本+工单持久化</text>
    <!-- L3 Calibration -->
    <rect x="24" y="830" width="846" height="50" rx="8" fill="#fff7e6" stroke="#d79b3a"/>
    <text x="34" y="850" font-weight="700" fill="#7a4d12">L3 校准回路</text>
    <text x="34" y="868" fill="#5a4020">⑤时序实际 ↔ ⑥预测快照 → EMA/重放归因 → 回写⑥求解器参数(版本化,可重放回测)</text>
    <!-- L4 Action writeback -->
    <rect x="894" y="830" width="846" height="50" rx="8" fill="#fff7e6" stroke="#d79b3a"/>
    <text x="904" y="850" font-weight="700" fill="#7a4d12">L4 Action 真值写回</text>
    <text x="904" y="868" fill="#5a4020">⑦审批后 EXECUTED → 回写④对象 props → 触发⑤二次派生 + 写回回声对账(同值抑制/异值告警)</text>
  </g>

  <!-- ============ CROSS-CUTTING ============ -->
  <text x="24" y="918" font-size="14" font-weight="700" fill="#7a2a2a">横切关注点（贯穿每个模块的读写）</text>
  <g font-size="11.5">
    <rect x="24" y="930" width="420" height="64" rx="8" fill="#fdeaea" stroke="#c0504d"/><text x="34" y="950" font-weight="700" fill="#8a2a2a">R2 多租户隔离</text><text x="34" y="968" fill="#6a3a3a">所有仓储读写/事件/缓存键带 tenantId；</text><text x="34" y="984" fill="#6a3a3a">跨租户一律 403/404</text>
    <rect x="456" y="930" width="420" height="64" rx="8" fill="#fdeaea" stroke="#c0504d"/><text x="466" y="950" font-weight="700" fill="#8a2a2a">R3 Entitlement 门控</text><text x="466" y="968" fill="#6a3a3a">功能关闭=不存在→404；</text><text x="466" y="984" fill="#6a3a3a">先于 authz（feature 先判）</text>
    <rect x="888" y="930" width="420" height="64" rx="8" fill="#fdeaea" stroke="#c0504d"/><text x="898" y="950" font-weight="700" fill="#8a2a2a">A6 行级过滤</text><text x="898" y="968" fill="#6a3a3a">Policy 贯穿 query/slice/solver 读出；</text><text x="898" y="984" fill="#6a3a3a">无权子树整条不出现</text>
    <rect x="1320" y="930" width="420" height="64" rx="8" fill="#fdeaea" stroke="#c0504d"/><text x="1330" y="950" font-weight="700" fill="#8a2a2a">OutboxEvent → 前端失效</text><text x="1330" y="968" fill="#6a3a3a">任意产出(上传/发布/审批/tick)发事件；</text><text x="1330" y="984" fill="#6a3a3a">下游页订阅刷新(D-29, SLO≤60s)</text>
  </g>

  <!-- 事件回流到前端 -->
  <path d="M1700,994 C1730,940 1730,500 1700,456" fill="none" stroke="#c0504d" stroke-width="1.4" stroke-dasharray="4 4" marker-end="url(#a)"/>

  <!-- legend -->
  <g font-size="11">
    <text x="24" y="1030" font-weight="700" fill="#1b2430">图例：</text>
    <rect x="76" y="1021" width="16" height="11" fill="#dceafc" stroke="#4C7BE0"/><text x="98" y="1031" fill="#33506b">DataCore A</text>
    <rect x="186" y="1021" width="16" height="11" fill="#e2f3ea" stroke="#3aa76d"/><text x="208" y="1031" fill="#15623c">AgentCore B</text>
    <rect x="300" y="1021" width="16" height="11" fill="#ece6f9" stroke="#7e5bd6"/><text x="322" y="1031" fill="#4a2b94">前端</text>
    <rect x="370" y="1021" width="16" height="11" fill="#fde7d6" stroke="#d79b3a"/><text x="392" y="1031" fill="#7a4d12">发动机/故事/回路</text>
    <rect x="510" y="1021" width="16" height="11" fill="#fdeaea" stroke="#c0504d"/><text x="532" y="1031" fill="#8a2a2a">横切不变量</text>
    <text x="640" y="1031" fill="#5a6678">I=输入 · P=过程 · O=输出 ；实线=主数据脊(下游) ；虚线绿=OBO 取数 ；橙=反馈回路 ；红虚=事件失效</text>
  </g>
  <text x="24" y="1062" font-size="11" fill="#8a98ac">注：松耦合——AgentCore B 只经 DataCore A 的公开 REST（OBO 透传用户身份）取数；前端是两系统汇合点（dual baseURL，部署态经网关同源）。</text>
</svg>
